# xmcd
#
# Track frame offsets:
#	150
#	25069
#	40620
#	54092
#	68757
#	81601
#	93489
#	107669
#	120901
#	133157
#	146279
#	158725
#	170231
#	183516
#	197124
#	210932
#	226956
#	238873
#	250175
#	263820
#	273024
#	285259
#	297933
#	310591
#
# Disc length: 4315 seconds
#
# Revision: 2
# Processed by: cddbd v1.4b42PL1 Copyright (c) Steve Scherf et al.
# Submitted via: EZCDDA 4.3.2
#
DISCID=4810d918
DTITLE=Arthur "Big Boy" Crudup - Angel Child
DYEAR=1900
DGENRE=
TTITLE0=Arthur 'Big Boy' Crudup - Angel Child
TTITLE1=Arthur 'Big Boy' Crudup - Black pony blues
TTITLE2=Arthur 'Big Boy' Crudup - Boy friend blues
TTITLE3=Arthur 'Big Boy' Crudup - Chicago Blues
TTITLE4=Arthur 'Big Boy' Crudup - Coal Black Mare
TTITLE5=Arthur 'Big Boy' Crudup - Come Back Baby
TTITLE6=Arthur 'Big Boy' Crudup - Cool disposition
TTITLE7=Arthur 'Big Boy' Crudup - Crudup's After Hours
TTITLE8=Arthur 'Big Boy' Crudup - Death Valley Blues
TTITLE9=Arthur 'Big Boy' Crudup - Give Me A 32-20
TTITLE10=Arthur 'Big Boy' Crudup - Gonna Be Some Changes Made
TTITLE11=Arthur 'Big Boy' Crudup - Greyhound Bus
TTITLE12=Arthur 'Big Boy' Crudup - Hey Mama Everything's All Right
TTITLE13=Arthur 'Big Boy' Crudup - I Want My Lovin'
TTITLE14=Arthur 'Big Boy' Crudup - I'm In The Mood
TTITLE15=Arthur 'Big Boy' Crudup - Look On Yonders Wall
TTITLE16=Arthur 'Big Boy' Crudup - Mean Old 'Frisco Blues
TTITLE17=Arthur 'Big Boy' Crudup - My Baby Left Me
TTITLE18=Arthur 'Big Boy' Crudup - Rock Me Mama
TTITLE19=Arthur 'Big Boy' Crudup - She's Got No Hair
TTITLE20=Arthur 'Big Boy' Crudup - Shout Sister Shout
TTITLE21=Arthur 'Big Boy' Crudup - So Glad You're Mine
TTITLE22=Arthur 'Big Boy' Crudup - Standing At My Window
TTITLE23=Arthur 'Big Boy' Crudup - That's All Right
EXTD=
EXTT0=
EXTT1=
EXTT2=
EXTT3=
EXTT4=
EXTT5=
EXTT6=
EXTT7=
EXTT8=
EXTT9=
EXTT10=
EXTT11=
EXTT12=
EXTT13=
EXTT14=
EXTT15=
EXTT16=
EXTT17=
EXTT18=
EXTT19=
EXTT20=
EXTT21=
EXTT22=
EXTT23=
PLAYORDER=
